<svg width="18" height="18" viewBox="0 0 18 18" fill="none" xmlns="http://www.w3.org/2000/svg">
    <path d="M3.70494 6.31152L0.975546 4.92188C0.762053 5.34134 0.58023 5.78109 0.435547 6.22904L3.34995 7.17142C3.44519 6.87681 3.56458 6.58767 3.70516 6.31175L3.70494 6.31152Z" fill="black"/>
    <path d="M6.02252 3.86262L7.53429 6.46738C7.75508 6.33932 7.99135 6.24089 8.2372 6.17482L7.45477 3.26634C7.65391 3.2128 7.85624 3.16859 8.05971 3.13647L7.57895 0.111328C7.11391 0.185151 6.65184 0.296569 6.20525 0.442163L7.14011 3.30735C6.84277 3.40442 6.55318 3.52495 6.27429 3.66758L4.90014 0.985353C4.48227 1.19953 4.07806 1.44834 3.69824 1.72563L5.50394 4.1996C5.67027 4.07839 5.84411 3.96606 6.02229 3.86239L6.02252 3.86262Z" fill="black"/>
    <path d="M14.1351 6.02073L11.5312 7.53387C11.6595 7.75442 11.758 7.99093 11.8243 8.23632L14.7325 7.45253C14.7861 7.65166 14.8303 7.85377 14.8626 8.05701L17.8873 7.57534C17.8132 7.11053 17.7016 6.64822 17.5556 6.20141L14.6908 7.13809C14.5935 6.84075 14.473 6.55139 14.3301 6.2725L17.0114 4.89653C16.7973 4.47911 16.548 4.07491 16.2707 3.69531L13.7974 5.50215C13.9189 5.66848 14.0312 5.8421 14.1349 6.0205L14.1351 6.02073Z" fill="black"/>
    <path d="M13.0736 0.97291C12.6537 0.759644 12.214 0.578049 11.7665 0.433594L10.8257 3.34845C11.1201 3.44347 11.4094 3.56286 11.6858 3.70321L13.0736 0.972682V0.97291Z" fill="black"/>
    <path d="M11.9866 3.8086L10.4575 6.46235C10.679 6.58994 10.8831 6.74625 11.0647 6.92716L15.3533 2.62402C15.0206 2.2925 14.6593 1.98468 14.2792 1.70898L12.5104 4.14832C12.3418 4.0262 12.1673 3.9125 11.9868 3.80838L11.9866 3.8086Z" fill="black"/>
    <path d="M3.81017 6.01144L6.46323 7.54212C6.59082 7.32088 6.74758 7.1165 6.92872 6.93468L2.62741 2.64453C2.29566 2.97719 1.98761 3.33833 1.71191 3.71815L4.15034 5.48807C4.02822 5.65645 3.91429 5.83098 3.81017 6.01144Z" fill="black"/>
    <path d="M9.92871 3.08483L10.3915 0.107089C9.93418 0.036 9.46618 0 9.00023 0H8.99316V6.07534H9.00023C9.25633 6.07534 9.5097 6.10815 9.75349 6.17286L10.5391 3.21243C10.3382 3.15911 10.1345 3.11696 9.92871 3.08483Z" fill="black"/>
    <path d="M6.17308 8.2447L3.21311 7.45703C3.15957 7.65799 3.11719 7.86169 3.08506 8.06744L0.107772 7.60331C0.0362278 8.0622 0 8.53202 0 8.99933H6.07534C6.07534 8.74278 6.10838 8.48873 6.17331 8.2447H6.17308Z" fill="black"/>
    <path d="M14.2951 11.688L17.0245 13.0777C17.238 12.6582 17.4199 12.2185 17.5645 11.7705L14.6501 10.8281C14.5549 11.1227 14.4355 11.4119 14.2949 11.6878L14.2951 11.688Z" fill="black"/>
    <path d="M11.9769 14.138L10.4651 11.5332C10.2443 11.6613 10.0081 11.7597 9.76221 11.8258L10.5446 14.7342C10.3453 14.7878 10.1432 14.832 9.9397 14.8641L10.4202 17.889C10.8853 17.8152 11.3473 17.7038 11.7939 17.5582L10.8591 14.693C11.1566 14.5959 11.446 14.4754 11.7249 14.3328L13.099 17.015C13.5169 16.8008 13.9211 16.552 14.3009 16.2747L12.4952 13.8007C12.3289 13.922 12.1551 14.0343 11.9769 14.138Z" fill="black"/>
    <path d="M3.86451 11.9793L6.46858 10.4661C6.3403 10.2456 6.24187 10.0091 6.17557 9.76367L3.26732 10.5475C3.21377 10.3483 3.16957 10.1462 3.13721 9.94299L0.112305 10.4247C0.186355 10.8895 0.298001 11.3518 0.444051 11.7986L3.30878 10.8619C3.40608 11.1592 3.52661 11.4486 3.66947 11.7275L0.988152 13.1035C1.20233 13.5209 1.45159 13.9251 1.72889 14.3047L4.20218 12.4978C4.08073 12.3315 3.9684 12.1579 3.86473 11.9795L3.86451 11.9793Z" fill="black"/>
    <path d="M4.92627 17.0272C5.34619 17.2404 5.78594 17.422 6.23343 17.5665L7.17422 14.6516C6.87984 14.5566 6.59047 14.4372 6.31409 14.2969L4.92627 17.0274V17.0272Z" fill="black"/>
    <path d="M6.01414 14.1908L7.54323 11.5371C7.32176 11.4095 7.11761 11.2532 6.93601 11.0723L2.64746 15.3754C2.98012 15.7069 3.34149 16.0147 3.72154 16.2904L5.49032 13.8511C5.65893 13.9732 5.83346 14.0869 6.01391 14.191L6.01414 14.1908Z" fill="black"/>
    <path d="M14.1889 11.9897L11.5358 10.459C11.4082 10.6802 11.2515 10.8846 11.0703 11.0664L15.3714 15.3568C15.7031 15.0241 16.0112 14.663 16.2869 14.2832L13.8485 12.5133C13.9706 12.3449 14.0845 12.1704 14.1886 11.9899L14.1889 11.9897Z" fill="black"/>
    <path d="M8.24656 11.8281L7.46094 14.7886C7.6619 14.8419 7.8656 14.884 8.07134 14.9161L7.60881 17.8939C8.0661 17.965 8.5341 18.001 9.00005 18.001H9.00711V11.9256H9.00005C8.74395 11.9256 8.49058 11.8928 8.24679 11.8281H8.24656Z" fill="black"/>
    <path d="M11.9246 9C11.9246 9.25656 11.8916 9.51038 11.8267 9.75463L14.7866 10.5423C14.8402 10.3413 14.8826 10.1376 14.9147 9.9319L17.8922 10.3963C17.9637 9.93737 18 9.46754 18 9.00023H11.9246V9Z" fill="black"/>
</svg>
