<svg width="138" height="38" viewBox="0 0 138 38" fill="none" xmlns="http://www.w3.org/2000/svg">
    <path d="M50.9651 13.24H46.124V24.7614H48.6206V15.7366H49.3386L53.3258 24.7614H56.0555L50.9651 13.24Z" fill="white"/>
    <path d="M94.5403 24.7614H97.0369V13.24H94.5403V24.7614Z" fill="white"/>
    <path d="M61.1453 13.24L56.0554 24.7614H58.7846L62.7718 15.7366H63.4898V24.7614H65.9864V13.24H61.1453Z" fill="white"/>
    <path d="M77.1509 13.24H72.5835L67.4932 24.7614H70.2228L71.8812 21.0072H77.8532L79.5116 24.7614H82.2412L77.1509 13.24V13.24ZM72.9843 18.5106L74.21 15.7366H75.5244L76.7501 18.5106H72.9843Z" fill="white"/>
    <path d="M89.4501 13.24H83.6848V24.7614H86.1814V15.7366H87.8236L91.8108 24.7614H94.5405L89.4501 13.24Z" fill="white"/>
    <path d="M98.4236 13.24V15.7366H104.249V24.7614H106.746V15.7366H112.571V13.24H98.4236Z" fill="white"/>
    <path d="M116.455 13.24H113.958V24.7614H124.823V22.2648H116.455V13.24Z" fill="white"/>
    <path d="M138 15.7366V13.24H126.21V24.7614H138V22.2648H128.707V20.0826H136.763V17.5859H128.707V15.7366H138Z" fill="white"/>
    <path d="M7.51711 13.5454L1.97879 10.7256C1.54558 11.5767 1.17664 12.4691 0.883057 13.378L6.79679 15.2902C6.99005 14.6924 7.23231 14.1057 7.51757 13.5458L7.51711 13.5454Z" fill="white"/>
    <path d="M12.2217 8.57601L15.2893 13.8614C15.7373 13.6016 16.2167 13.4019 16.7156 13.2678L15.1279 7.36608C15.532 7.25743 15.9425 7.16773 16.3554 7.10254L15.3799 0.964111C14.4362 1.11391 13.4986 1.33999 12.5925 1.63542L14.4894 7.4493C13.8861 7.64625 13.2984 7.89083 12.7325 8.18025L9.94419 2.73763C9.09627 3.17223 8.27608 3.6771 7.50537 4.23976L11.1694 9.2598C11.5069 9.01384 11.8596 8.78591 12.2212 8.57555L12.2217 8.57601Z" fill="white"/>
    <path d="M28.683 12.9542L23.3994 16.0246C23.6597 16.4721 23.8594 16.952 23.994 17.4499L29.8952 15.8595C30.0039 16.2636 30.0936 16.6737 30.1592 17.0861L36.2967 16.1087C36.1465 15.1655 35.9199 14.2275 35.6236 13.3208L29.8106 15.2215C29.6132 14.6181 29.3686 14.031 29.0787 13.4651L34.5195 10.673C34.0849 9.82603 33.5791 9.00585 33.0165 8.2356L27.9978 11.9019C28.2442 12.2394 28.4722 12.5917 28.6825 12.9537L28.683 12.9542Z" fill="white"/>
    <path d="M26.5284 2.71227C25.6764 2.27952 24.7841 1.91104 23.876 1.61792L21.967 7.53258C22.5644 7.72538 23.1515 7.96764 23.7124 8.25244L26.5284 2.71181V2.71227Z" fill="white"/>
    <path d="M24.3215 8.46746L21.2188 13.8523C21.6681 14.1112 22.0824 14.4284 22.4509 14.7954L31.153 6.06377C30.4779 5.39107 29.7447 4.76646 28.9735 4.20703L25.3844 9.1568C25.0423 8.90899 24.6881 8.67828 24.3219 8.46699L24.3215 8.46746Z" fill="white"/>
    <path d="M7.73299 12.935L13.1164 16.0409C13.3753 15.592 13.6934 15.1773 14.061 14.8083L5.33301 6.10303C4.65985 6.77804 4.03477 7.51084 3.47534 8.28155L8.42326 11.873C8.17545 12.2146 7.94428 12.5688 7.73299 12.935Z" fill="white"/>
    <path d="M20.1462 6.9976L21.0852 0.955335C20.1572 0.811086 19.2076 0.738037 18.2621 0.738037H18.2478V13.0658H18.2621C18.7818 13.0658 19.2959 13.1323 19.7906 13.2636L21.3848 7.25651C20.977 7.14832 20.5636 7.06279 20.1462 6.9976V6.9976Z" fill="white"/>
    <path d="M12.5261 17.4687L6.51986 15.8704C6.41121 16.2781 6.32522 16.6915 6.26003 17.109L0.218685 16.1672C0.0735114 17.0983 0 18.0517 0 18.9999H12.3277C12.3277 18.4793 12.3948 17.9638 12.5265 17.4687H12.5261Z" fill="white"/>
    <path d="M29.0073 24.4553L34.5456 27.2751C34.9788 26.4239 35.3478 25.5316 35.6414 24.6227L29.7276 22.7104C29.5344 23.3082 29.2921 23.895 29.0068 24.4548L29.0073 24.4553Z" fill="white"/>
    <path d="M24.3025 29.4241L21.2349 24.1387C20.7869 24.3985 20.3075 24.5982 19.8086 24.7323L21.3963 30.634C20.9917 30.7427 20.5816 30.8324 20.1688 30.8976L21.1438 37.0355C22.0874 36.8857 23.0251 36.6596 23.9312 36.3642L22.0343 30.5503C22.6381 30.3534 23.2253 30.1088 23.7912 29.8194L26.5795 35.262C27.4274 34.8274 28.2476 34.3225 29.0183 33.7599L25.3543 28.7398C25.0168 28.9858 24.664 29.2137 24.3025 29.4241V29.4241Z" fill="white"/>
    <path d="M7.84177 25.0465L13.1258 21.9762C12.8655 21.5286 12.6658 21.0487 12.5312 20.5508L6.62999 22.1412C6.52134 21.7371 6.43165 21.327 6.366 20.9146L0.228027 21.892C0.378286 22.8352 0.604831 23.7733 0.901188 24.6799L6.71414 22.7792C6.91155 23.3826 7.15613 23.9698 7.44601 24.5357L2.00525 27.3277C2.43984 28.1747 2.94564 28.9949 3.5083 29.7651L8.52695 26.0988C8.28053 25.7613 8.0526 25.409 7.84224 25.047L7.84177 25.0465Z" fill="white"/>
    <path d="M9.99609 35.2885C10.8482 35.7212 11.7405 36.0897 12.6485 36.3828L14.5575 30.4681C13.9602 30.2754 13.373 30.0331 12.8122 29.7483L9.99609 35.2889V35.2885Z" fill="white"/>
    <path d="M12.2028 29.5333L15.3055 24.1485C14.8562 23.8896 14.4419 23.5724 14.0734 23.2053L5.37134 31.937C6.04635 32.6097 6.77961 33.2343 7.55079 33.7937L11.1399 28.844C11.482 29.0918 11.8362 29.3225 12.2023 29.5338L12.2028 29.5333Z" fill="white"/>
    <path d="M28.7914 25.0657L23.4079 21.9597C23.149 22.4086 22.8309 22.8234 22.4634 23.1923L31.1909 31.8981C31.8641 31.2231 32.4891 30.4903 33.0486 29.7196L28.1006 26.1281C28.3485 25.7865 28.5796 25.4323 28.7909 25.0662L28.7914 25.0657Z" fill="white"/>
    <path d="M16.7338 24.7363L15.1396 30.7435C15.5474 30.8516 15.9608 30.9372 16.3782 31.0024L15.4397 37.0446C16.3676 37.1889 17.3173 37.2619 18.2627 37.2619H18.2771V24.9342H18.2627C17.7431 24.9342 17.2289 24.8676 16.7342 24.7363H16.7338Z" fill="white"/>
    <path d="M24.1969 19.0005C24.1969 19.5211 24.1298 20.0361 23.998 20.5317L30.0042 22.13C30.1129 21.7223 30.1989 21.3089 30.2641 20.8914L36.3059 21.8337C36.4511 20.9025 36.5246 19.9492 36.5246 19.001H24.1969V19.0005Z" fill="white"/>
</svg>
